<?xml version="1.0" standalone="no"?>
<!DOCTYPE svg PUBLIC "-//W3C//DTD SVG 20010904//EN"
 "http://www.w3.org/TR/2001/REC-SVG-20010904/DTD/svg10.dtd">
<svg version="1.0" xmlns="http://www.w3.org/2000/svg"
 width="3508.000000pt" height="2481.000000pt" viewBox="0 0 3508.000000 2481.000000"
 preserveAspectRatio="xMidYMid meet">

<g transform="translate(0.000000,2481.000000) scale(0.100000,-0.100000)"
fill="#000000" stroke="none">
<path d="M7989 20001 c-245 -352 -535 -899 -766 -1446 -191 -451 -268 -665
-327 -905 -190 -773 -178 -1815 35 -2874 27 -137 51 -252 54 -255 2 -4 -173
-281 -390 -617 -217 -335 -416 -644 -442 -686 -26 -43 -51 -78 -55 -78 -3 0
-30 44 -60 98 -57 102 -275 487 -595 1052 -105 184 -344 607 -533 940 -188
333 -345 608 -349 613 -4 4 -46 -93 -94 -215 -171 -444 -452 -1171 -594 -1538
-80 -206 -221 -571 -313 -810 -92 -239 -250 -646 -350 -905 -100 -258 -204
-526 -230 -595 -41 -106 -182 -471 -197 -506 -4 -11 107 -70 722 -384 143 -73
324 -166 403 -207 79 -41 145 -73 146 -71 2 1 158 543 346 1203 188 660 346
1204 350 1208 4 5 21 -15 37 -45 16 -29 172 -303 348 -608 175 -305 431 -751
568 -990 138 -239 257 -447 264 -462 8 -16 16 -28 17 -28 4 0 10 9 541 810
245 371 549 829 673 1017 125 189 230 343 234 343 19 0 104 -128 167 -250 110
-215 264 -608 326 -836 110 -400 123 -849 50 -1729 -14 -165 -28 -312 -31
-327 l-6 -28 -2729 -2 -2730 -3 -1 -120 -1 -120 2713 -3 2713 -2 -7 -48 c-11
-79 -83 -362 -127 -493 -163 -494 -414 -914 -742 -1244 l-150 -149 48 -526
c26 -289 49 -527 51 -529 2 -2 20 0 40 3 57 11 163 125 276 296 115 175 165
264 297 529 275 548 444 997 575 1521 45 182 116 555 116 611 l0 29 1015 0
c713 0 1015 -3 1015 -11 0 -15 -120 -325 -178 -459 -107 -247 -261 -558 -407
-825 -90 -164 -303 -530 -336 -577 -25 -35 -25 -45 15 -248 34 -171 98 -501
133 -687 9 -51 20 -93 23 -93 3 0 38 55 76 122 101 176 363 630 452 783 155
268 232 421 317 630 144 351 260 764 330 1170 14 83 28 160 30 172 l5 23
11070 0 11070 0 0 125 0 125 -11056 0 -11056 0 6 38 c38 235 58 1006 37 1368
-34 559 -112 1095 -221 1518 -102 399 -231 708 -499 1201 -308 566 -442 959
-535 1565 -43 282 -49 382 -43 684 6 279 19 415 62 651 122 667 421 1399 826
2021 l79 121 0 532 0 533 -23 -29 c-30 -36 -289 -382 -342 -457 -75 -106 -176
-278 -250 -424 -314 -629 -513 -1375 -594 -2227 -47 -490 -39 -1270 19 -1775
67 -595 220 -1149 470 -1710 47 -105 52 -117 187 -415 201 -444 302 -716 382
-1025 116 -449 165 -918 142 -1353 -16 -306 -58 -625 -101 -780 l-11 -37
-1036 0 -1036 0 7 88 c4 48 11 143 17 212 16 202 23 1246 10 1469 -32 540
-134 1019 -327 1526 -79 211 -145 362 -349 810 -267 585 -326 735 -385 978
-61 249 -87 486 -100 922 -10 330 2 1084 20 1255 72 698 279 1226 641 1637 83
95 224 221 300 268 21 14 39 31 39 38 1 38 -105 1013 -110 1020 -4 4 -45 -46
-91 -112z"/>
<path d="M23345 14690 c-250 -33 -450 -133 -612 -304 -63 -66 -91 -106 -131
-187 -70 -139 -83 -195 -89 -369 -6 -168 7 -254 58 -376 81 -195 251 -353 714
-663 313 -209 378 -255 466 -328 128 -105 187 -213 196 -358 14 -220 -100
-376 -327 -447 -65 -20 -95 -23 -225 -23 -135 1 -159 3 -245 29 -200 60 -334
147 -540 351 l-105 104 3 -315 c3 -363 -11 -315 119 -404 207 -143 397 -208
673 -231 400 -33 727 89 949 353 147 174 210 407 182 671 -44 408 -218 624
-791 985 -270 170 -382 253 -496 367 -80 80 -109 117 -139 178 -36 73 -37 80
-33 155 6 101 38 170 111 239 194 183 543 190 877 17 88 -46 249 -151 298
-194 7 -7 15 -10 17 -8 3 2 5 123 5 268 1 305 17 266 -130 339 -265 133 -542
185 -805 151z"/>
<path d="M11860 12931 l0 -1710 233 2 232 2 5 1332 5 1333 75 -87 c41 -48 84
-99 95 -112 11 -13 67 -79 125 -146 58 -67 125 -146 150 -175 25 -30 59 -70
76 -90 38 -44 27 -31 364 -425 155 -181 286 -330 290 -330 6 0 1052 1214 1143
1327 17 21 32 36 34 35 2 -2 3 -596 3 -1319 0 -724 3 -1323 6 -1332 5 -14 33
-16 223 -16 119 0 222 4 229 8 10 7 12 355 10 1708 l-3 1699 -201 3 -202 2
-35 -37 c-53 -58 -157 -177 -358 -414 -101 -118 -249 -292 -329 -385 -80 -93
-198 -230 -261 -304 -64 -74 -148 -172 -186 -217 l-71 -81 -34 36 c-35 37 -96
108 -483 562 -246 288 -249 292 -296 344 -19 23 -122 143 -228 268 l-192 227
-210 1 -209 1 0 -1710z"/>
<path d="M15902 12933 l3 -1708 235 0 235 0 3 743 2 742 985 0 985 0 2 -742 3
-743 238 -3 237 -2 -2 1707 -3 1708 -235 0 -235 0 -3 -732 -2 -733 -985 0
-985 0 0 735 0 735 -240 0 -240 0 2 -1707z"/>
<path d="M20573 14628 c-6 -7 -35 -71 -66 -143 -64 -151 -291 -676 -311 -720
-8 -16 -86 -196 -174 -400 -88 -203 -218 -505 -290 -670 -71 -165 -142 -329
-157 -365 -15 -36 -38 -90 -52 -120 -14 -30 -29 -64 -33 -76 -5 -11 -70 -162
-145 -335 -75 -173 -161 -370 -191 -438 -30 -68 -54 -128 -54 -133 0 -5 108
-8 240 -8 236 1 241 2 254 23 8 12 102 228 210 479 108 252 201 469 208 483
l11 25 731 0 731 0 59 -138 c33 -75 97 -222 144 -327 46 -104 106 -242 134
-305 27 -63 61 -140 75 -171 l25 -57 244 -7 c135 -4 247 -5 250 -3 4 4 -72
185 -165 391 -10 23 -58 132 -106 242 -48 110 -93 214 -101 230 -24 55 -199
454 -433 987 -127 290 -240 547 -250 570 -11 24 -98 223 -195 443 -96 220
-190 435 -210 478 l-35 77 -169 0 c-124 0 -172 -3 -179 -12z m277 -968 c32
-74 142 -326 244 -559 102 -233 183 -428 180 -432 -3 -5 -241 -9 -530 -9 -451
0 -524 2 -524 15 0 7 15 49 34 92 64 147 416 974 416 977 0 2 16 39 36 82 l36
79 25 -55 c13 -30 51 -116 83 -190z"/>
<path d="M25005 14628 c-3 -7 -4 -776 -3 -1708 l3 -1695 240 0 240 0 0 1705 0
1705 -238 3 c-185 2 -239 0 -242 -10z"/>
<path d="M26240 12930 l0 -1710 568 0 c312 0 639 5 727 10 354 22 605 120 795
310 169 170 240 352 240 615 0 250 -83 451 -252 610 -121 114 -231 177 -420
239 l-98 32 103 52 c291 147 421 398 389 752 -13 144 -35 227 -85 325 -49 95
-66 119 -139 193 -115 116 -277 199 -470 241 -150 32 -331 41 -865 41 l-493 0
0 -1710z m1210 1245 c154 -42 238 -104 288 -212 70 -152 66 -368 -10 -517 -33
-65 -117 -145 -190 -182 -143 -72 -284 -94 -605 -94 l-213 0 0 516 0 516 333
-5 c279 -3 342 -7 397 -22z m28 -1456 c414 -45 599 -227 578 -569 -18 -307
-179 -447 -551 -480 -60 -5 -262 -10 -447 -10 l-338 0 0 535 0 535 330 0 c182
0 374 -5 428 -11z"/>
<path d="M29114 14626 c-3 -8 -4 -520 -1 -1138 5 -1201 6 -1240 57 -1424 98
-358 443 -687 858 -818 190 -60 337 -80 572 -79 253 2 459 38 648 114 370 147
656 448 752 789 50 178 50 185 50 1418 l0 1152 -237 -2 -238 -3 -5 -1165 c-5
-1098 -7 -1169 -24 -1230 -67 -232 -202 -392 -429 -506 -136 -69 -281 -103
-467 -111 -357 -16 -642 85 -857 304 -81 82 -140 189 -168 303 -28 116 -34
388 -35 1408 l0 1002 -235 0 c-195 0 -237 -2 -241 -14z"/>
<path d="M16795 8736 c-60 -19 -96 -40 -139 -83 -60 -58 -86 -123 -86 -213 0
-138 52 -206 272 -353 202 -135 235 -174 226 -268 -9 -93 -92 -146 -215 -137
-77 5 -155 43 -226 108 l-58 53 3 -109 3 -108 40 -28 c81 -56 139 -72 265 -73
106 0 119 2 172 28 132 65 194 169 185 308 -10 149 -65 220 -283 365 -190 126
-244 190 -223 269 11 39 73 93 116 101 93 17 210 -15 300 -82 17 -13 34 -24
37 -24 3 0 6 40 6 89 l0 89 -32 20 c-64 40 -153 62 -240 61 -46 0 -101 -6
-123 -13z"/>
<path d="M18895 8734 c-39 -7 -110 -33 -161 -59 -345 -170 -450 -610 -216
-905 206 -260 560 -323 905 -160 l47 22 0 90 c0 49 -3 88 -7 86 -82 -42 -209
-98 -248 -109 -31 -9 -97 -14 -175 -14 -115 1 -131 3 -194 29 -132 56 -240
186 -267 324 -38 195 36 373 197 478 156 101 380 101 600 0 42 -20 78 -36 80
-36 2 0 4 38 4 84 0 55 -4 87 -12 93 -27 20 -163 64 -245 78 -104 18 -214 18
-308 -1z"/>
<path d="M20080 8736 c-168 -36 -317 -133 -403 -264 -269 -406 9 -924 508
-949 125 -7 226 11 361 64 l99 38 3 93 c1 50 0 92 -2 92 -3 0 -34 -16 -69 -35
-148 -82 -330 -115 -469 -86 -136 29 -259 128 -321 258 -30 65 -32 74 -32 188
0 114 2 123 32 188 38 80 116 166 188 207 150 86 375 81 581 -14 42 -20 78
-36 80 -36 2 0 4 40 4 88 l0 88 -70 27 c-39 15 -99 34 -133 43 -89 21 -277 27
-357 10z"/>
<path d="M21255 8736 c-199 -43 -359 -167 -444 -343 -146 -299 -14 -663 294
-810 249 -118 539 -68 736 127 378 377 118 1013 -424 1035 -63 3 -125 -1 -162
-9z m277 -167 c114 -38 216 -131 271 -247 30 -64 32 -73 32 -188 0 -118 -1
-121 -37 -195 -47 -95 -130 -177 -224 -221 -54 -25 -82 -32 -158 -36 -150 -8
-265 37 -363 141 -94 99 -129 201 -121 349 5 76 11 100 41 162 56 113 151 196
272 238 72 25 208 24 287 -3z"/>
<path d="M22755 8736 c-88 -28 -166 -90 -198 -159 -42 -88 -40 -212 3 -283 32
-50 116 -122 244 -208 201 -135 234 -176 223 -273 -18 -167 -291 -178 -447
-19 -25 25 -49 46 -53 46 -4 0 -6 -46 -5 -102 l3 -102 42 -32 c78 -59 143 -78
273 -79 104 0 120 3 170 26 66 32 131 95 162 158 18 36 23 63 23 126 0 170
-68 258 -322 415 -81 50 -170 135 -183 175 -21 63 8 123 77 156 37 18 57 21
121 17 81 -5 125 -22 210 -80 l43 -29 -3 93 -3 93 -43 23 c-90 50 -245 67
-337 38z"/>
<path d="M23774 8730 c-229 -60 -414 -243 -465 -460 -41 -175 12 -387 130
-523 140 -162 312 -235 526 -224 161 8 288 62 403 171 132 125 192 262 192
435 0 179 -50 301 -175 427 -63 64 -98 90 -165 123 -145 71 -302 89 -446 51z
m349 -183 c293 -139 355 -517 121 -742 -84 -81 -167 -117 -287 -123 -232 -12
-414 121 -472 345 -28 106 -14 217 40 324 33 65 83 119 152 165 87 58 150 74
268 71 92 -2 106 -5 178 -40z"/>
<path d="M25175 8735 c-131 -23 -246 -85 -344 -185 -273 -277 -206 -738 137
-939 203 -119 474 -120 725 -1 l47 22 0 95 0 94 -30 -21 c-97 -69 -266 -120
-397 -120 -196 0 -347 90 -429 256 -31 62 -37 86 -41 161 -9 152 23 246 119
348 61 66 145 115 228 134 25 6 88 11 140 11 110 0 202 -22 318 -76 41 -18 76
-34 78 -34 2 0 4 38 4 84 0 55 -4 87 -12 94 -25 19 -161 62 -245 77 -102 18
-202 18 -298 0z"/>
<path d="M11000 8135 l0 -595 85 0 85 0 2 463 3 463 122 -145 c218 -260 265
-315 297 -352 17 -20 105 -125 196 -233 l165 -196 72 0 73 0 0 595 0 595 -80
0 -80 0 0 -460 c0 -253 -3 -460 -7 -460 -5 0 -19 15 -33 32 -14 18 -66 80
-115 138 -50 58 -178 209 -285 335 -107 127 -230 272 -273 323 l-80 92 -73 0
-74 0 0 -595z"/>
<path d="M12212 8623 c58 -156 280 -762 345 -940 43 -119 59 -153 73 -153 19
0 17 -4 283 675 49 127 93 233 96 237 4 5 51 -108 106 -250 54 -141 122 -315
150 -387 29 -71 64 -163 79 -202 19 -50 33 -73 44 -73 13 0 67 134 236 588
121 323 221 593 224 600 3 9 -17 12 -79 12 l-84 0 -44 -123 c-153 -425 -245
-673 -251 -680 -4 -4 -48 99 -99 230 -51 131 -122 313 -159 406 l-66 167 -52
0 -51 0 -36 -87 c-38 -96 -108 -273 -212 -538 -37 -93 -70 -174 -74 -178 -6
-6 -126 319 -277 751 l-19 52 -86 0 -86 0 39 -107z"/>
<path d="M13920 8136 l0 -596 254 0 c140 0 290 5 333 11 246 34 429 198 489
439 23 93 15 273 -16 355 -65 171 -200 299 -375 356 -65 21 -91 23 -377 27
l-308 4 0 -596z m582 423 c232 -48 369 -257 329 -500 -24 -144 -97 -250 -214
-307 -86 -42 -153 -52 -354 -52 l-173 0 0 435 0 435 180 0 c98 0 203 -5 232
-11z"/>
<path d="M15070 8655 l0 -75 220 0 220 0 0 -520 0 -520 80 0 80 0 2 518 3 517
218 3 217 2 0 75 0 75 -520 0 -520 0 0 -75z"/>
<path d="M17741 8703 c-38 -82 -501 -1153 -501 -1159 0 -2 37 -4 83 -4 l83 0
74 175 74 175 263 0 c164 0 263 -4 263 -10 0 -5 33 -84 72 -175 l73 -165 82 0
c46 0 83 3 83 6 0 3 -106 247 -236 542 -130 296 -246 561 -258 589 l-21 53
-61 0 c-57 0 -62 -2 -73 -27z m164 -439 c50 -113 92 -210 93 -215 2 -5 -75 -9
-182 -9 -130 0 -186 3 -186 11 0 16 172 419 179 419 3 0 47 -93 96 -206z"/>
<path d="M25910 8135 l0 -595 85 0 85 0 0 595 0 595 -85 0 -85 0 0 -595z"/>
<path d="M26310 8135 l0 -595 365 0 365 0 0 75 0 75 -285 0 -285 0 0 190 0
190 264 0 c202 0 265 3 268 13 2 6 4 39 3 72 l0 60 -267 3 -268 2 0 180 0 180
275 0 275 0 0 75 0 75 -355 0 -355 0 0 -595z"/>
<path d="M27110 8655 l0 -75 220 0 220 0 0 -520 0 -520 80 0 80 0 0 520 0 520
219 0 220 0 3 32 c3 32 4 32 74 -57 39 -50 95 -122 125 -161 30 -39 87 -112
127 -163 l72 -93 0 -299 0 -299 85 0 85 0 0 299 0 299 103 128 c57 71 157 197
222 279 65 83 125 158 133 168 14 16 9 17 -84 17 l-100 0 -54 -67 c-29 -38
-110 -139 -178 -226 -103 -131 -127 -156 -138 -145 -12 12 -119 151 -271 351
l-66 87 -589 0 -588 0 0 -75z"/>
<path d="M29660 8135 l0 -595 365 0 365 0 0 75 0 75 -285 0 -285 0 0 520 0
520 -80 0 -80 0 0 -595z"/>
<path d="M30390 8655 l0 -75 218 0 217 0 0 -518 0 -517 83 -3 82 -3 0 521 0
520 220 0 220 0 0 75 0 75 -520 0 -520 0 0 -75z"/>
<path d="M31540 8134 l0 -596 303 5 c227 3 314 8 353 19 217 65 374 232 420
448 20 92 13 218 -15 311 -46 146 -162 282 -296 345 -113 54 -189 64 -496 64
l-269 0 0 -596z m642 407 c91 -35 149 -80 195 -149 58 -86 68 -126 68 -267 0
-116 -1 -123 -33 -187 -42 -85 -105 -149 -187 -188 -89 -42 -142 -50 -346 -50
l-179 0 0 436 0 436 213 -4 c190 -4 218 -7 269 -27z"/>
<path d="M25065 6608 c-205 -28 -328 -215 -270 -413 22 -78 97 -152 277 -273
168 -113 203 -145 217 -200 22 -81 -6 -145 -81 -183 -34 -17 -55 -20 -122 -17
-100 4 -167 35 -249 114 l-57 55 0 -115 c0 -114 0 -115 28 -134 201 -142 494
-116 609 54 54 79 68 190 37 294 -32 108 -85 162 -292 296 -190 124 -241 194
-203 280 51 114 242 121 394 14 32 -22 60 -40 62 -40 3 0 5 42 5 94 l0 94 -36
21 c-87 52 -209 74 -319 59z"/>
<path d="M30081 6594 c-97 -35 -175 -104 -219 -194 -24 -49 -27 -66 -27 -160
0 -92 3 -112 26 -160 77 -164 249 -237 426 -181 37 12 74 25 81 28 18 7 -18
-84 -60 -154 -46 -76 -143 -180 -232 -248 l-75 -57 47 -58 c28 -36 51 -56 58
-52 40 22 183 144 231 196 75 81 155 206 194 301 47 119 61 202 57 345 -3 116
-5 130 -35 192 -40 85 -100 150 -171 185 -49 24 -71 28 -157 30 -72 2 -112 -1
-144 -13z m216 -165 c81 -39 131 -143 120 -252 -3 -41 -10 -56 -35 -78 -36
-32 -117 -59 -176 -59 -77 1 -160 57 -186 125 -14 36 -15 131 -2 166 15 38 62
90 97 105 47 20 132 17 182 -7z"/>
<path d="M30993 6595 c-69 -21 -131 -63 -172 -115 -53 -67 -66 -109 -66 -210
0 -98 23 -156 87 -226 l38 -42 -27 -17 c-49 -31 -84 -69 -111 -120 -24 -44
-27 -62 -27 -145 0 -82 4 -103 27 -152 35 -75 104 -142 186 -181 63 -30 73
-32 183 -32 113 0 116 1 191 38 92 45 157 113 188 195 18 47 21 73 18 147 -5
116 -37 182 -115 234 l-52 34 44 44 c58 57 85 130 85 227 0 105 -21 158 -94
232 -79 79 -141 104 -259 103 -45 0 -101 -6 -124 -14z m230 -167 c55 -31 87
-87 87 -156 0 -67 -18 -109 -63 -149 -64 -56 -145 -67 -217 -30 -69 35 -103
85 -108 160 -5 77 13 124 59 160 69 52 165 58 242 15z m13 -544 c51 -29 72
-60 86 -127 31 -153 -104 -274 -266 -238 -169 38 -221 253 -84 354 67 50 188
55 264 11z"/>
<path d="M32055 6564 c-254 -196 -396 -426 -425 -688 -34 -300 103 -506 347
-523 172 -12 316 71 385 223 19 40 23 67 23 149 0 94 -2 105 -33 167 -82 167
-262 234 -445 166 -67 -26 -68 -26 -61 -4 15 50 87 175 131 228 52 61 143 145
204 185 l38 25 -46 59 c-26 32 -49 59 -52 59 -3 0 -33 -21 -66 -46z m78 -677
c21 -16 47 -47 58 -69 42 -83 17 -220 -49 -266 -157 -109 -342 10 -342 220 0
61 10 80 55 108 53 33 83 39 166 37 66 -2 80 -6 112 -30z"/>
<path d="M29240 5980 l0 -610 85 0 85 0 0 610 0 610 -85 0 -85 0 0 -610z"/>
<path d="M25690 6503 c-37 -13 -60 -47 -60 -85 0 -108 149 -122 175 -16 9 36
-20 84 -58 98 -33 11 -35 11 -57 3z"/>
<path d="M26325 6177 c-54 -18 -97 -41 -134 -73 l-31 -26 0 51 0 51 -80 0 -80
0 0 -405 0 -405 80 0 80 0 0 294 0 294 35 31 c19 17 48 37 63 44 67 34 175 26
221 -16 48 -44 51 -67 51 -367 l0 -280 81 0 80 0 -3 318 c-3 304 -4 319 -25
358 -26 48 -83 101 -131 121 -49 21 -159 26 -207 10z"/>
<path d="M27147 6179 c-106 -25 -228 -125 -273 -223 -53 -115 -52 -262 2 -368
53 -105 161 -189 279 -218 71 -17 208 -14 290 7 l70 18 3 78 c2 42 -1 77 -5
77 -4 0 -37 -9 -73 -21 -179 -56 -342 -7 -413 126 -31 57 -31 183 0 241 71
133 242 180 411 112 l62 -26 0 84 0 83 -66 21 c-71 21 -214 26 -287 9z"/>
<path d="M27885 6176 c-71 -22 -119 -53 -168 -105 -182 -195 -118 -564 117
-675 136 -65 334 -52 489 32 l47 25 0 79 0 78 -77 -39 c-258 -128 -476 -69
-509 138 l-7 41 308 0 307 0 -6 63 c-26 245 -162 378 -385 376 -42 0 -94 -6
-116 -13z m232 -151 c29 -18 49 -40 67 -77 46 -93 57 -88 -190 -88 l-215 0 6
23 c16 53 49 108 77 128 74 53 177 59 255 14z"/>
<path d="M25640 5775 l0 -405 80 0 80 0 -2 403 -3 402 -77 3 -78 3 0 -406z"/>
</g>
</svg>
